:FULLY-SPECIFIED
:FORCE-ALL-JOINTS-BE-3DOF
:DEGREES
3058
root -1.6242 15.9712 -34.1733 7.51501 3.5298 1.37196
lfemur -34.9522 5.05379 -2.58039
ltibia 55.0605 -0 0
lfoot -10.3341 -4.54543 -0.0695283
ltoes -43.6473 0 0
rfemur -37.3536 -5.43242 25.0444
rtibia 61.5684 -0 0
rfoot -21.3021 -28.0507 0.0120995
rtoes -0.0181598 0 0
lowerback 13.3401 0.240938 -1.45368
upperback -1.13027 0.228908 1.64374
thorax -8.73638 0.224069 2.53597
lowerneck 4.02601 -9.06942 -12.0932
upperneck -3.27794 -12.4672 9.8084
head -0.237204 -6.29645 4.85897
lclavicle -3.97569e-015 -2.06736e-014 0
lhumerus 15.7663 -44.3141 86.3221
lradius 70.5179 -0 0
lwrist -3.39288 0 0
lhand -28.2461 35.832 -0.0116063
lfingers 7.12502 -0 0
lthumb -1.62366 65.8054 -0.0112284
rclavicle -3.97569e-015 -2.06736e-014 0
rhumerus 22.375 47.9057 -47.3176
rradius 105.178 -0 0
rwrist -44.2269 0 0
rhand -7.59148 -37.5065 0.0185543
rfingers 7.12502 -0 0
rthumb 18.3019 -66.6651 0.0179197
3059
root -1.58558 15.9749 -34.1547 7.40681 3.98288 1.33967
lfemur -34.8205 4.84929 -2.80686
ltibia 54.8865 -0 0
lfoot -10.7484 -4.38708 -0.0604435
ltoes -43.9344 0 0
rfemur -37.1052 -5.20546 24.8508
rtibia 61.586 -0 0
rfoot -21.0134 -27.9664 0.0111321
rtoes -0.647426 0 0
lowerback 13.2896 0.229131 -1.34783
upperback -1.12847 0.229033 1.62408
thorax -8.70454 0.218163 2.45419
lowerneck 3.90702 -8.93163 -11.9793
upperneck -3.15637 -12.2696 9.75662
head -0.214765 -6.19632 4.82165
lclavicle -3.97569e-015 -2.06736e-014 0
lhumerus 14.6363 -44.6273 86.7961
lradius 70.6992 -0 0
lwrist -2.71309 0 0
lhand -28.259 36.1868 -0.0104347
lfingers 7.12502 -0 0
lthumb -1.63608 66.16 -0.0100943
rclavicle -3.97569e-015 -2.06736e-014 0
rhumerus 20.5985 48.4898 -48.4663
rradius 105.704 -0 0
rwrist -43.8691 0 0
rhand -7.62748 -38.3361 0.017092
rfingers 7.12502 -0 0
rthumb 18.2672 -67.4979 0.0165088
3060
root -1.54695 15.9786 -34.1362 7.3013 4.41578 1.3046
lfemur -34.6861 4.64468 -3.03427
ltibia 54.7175 -0 0
lfoot -11.1551 -4.21379 -0.0502154
ltoes -44.1978 0 0
rfemur -36.8544 -4.98234 24.6602
rtibia 61.5952 -0 0
rfoot -20.729 -27.8786 0.00995142
rtoes -1.2871 0 0
lowerback 13.2366 0.218977 -1.24428
upperback -1.12827 0.230936 1.60491
thorax -8.67312 0.213301 2.37392
lowerneck 3.78655 -8.79424 -11.8647
upperneck -3.0343 -12.0726 9.70226
head -0.191748 -6.09647 4.78395
lclavicle -3.97569e-015 -2.06736e-014 0
lhumerus 13.4941 -44.9185 87.2825
lradius 70.8739 -0 0
lwrist -2.05366 0 0
lhand -28.2735 36.5204 -0.0090708
lfingers 7.12502 -0 0
lthumb -1.65012 66.4935 -0.00877424
rclavicle -3.97569e-015 -2.06736e-014 0
rhumerus 18.7926 49.0379 -49.6632
rradius 106.212 -0 0
rwrist -43.5129 0 0
rhand -7.662 -39.1071 0.0151751
rfingers 7.12502 -0 0
rthumb 18.234 -68.272 0.0146589
3061
root -1.50833 15.9824 -34.1177 7.19933 4.82845 1.26735
lfemur -34.5466 4.44204 -3.25918
ltibia 54.5475 -0 0
lfoot -11.5518 -4.02992 -0.0393647
ltoes -44.4388 0 0
rfemur -36.6022 -4.76624 24.4725
rtibia 61.5938 -0 0
rfoot -20.4524 -27.7868 0.00859456
rtoes -1.93173 0 0
lowerback 13.1811 0.210679 -1.1442
upperback -1.12997 0.234728 1.5866
thorax -8.64241 0.209606 2.29623
lowerneck 3.66523 -8.65798 -11.7502
upperneck -2.91237 -11.8774 9.64499
head -0.168245 -5.99743 4.74603
lclavicle -3.97569e-015 -2.06736e-014 0
lhumerus 12.3423 -45.1849 87.7798
lradius 71.0423 -0 0
lwrist -1.4238 0 0
lhand -28.2893 36.8298 -0.00757371
lfingers 7.12502 -0 0
lthumb -1.66537 66.8027 -0.0073256
rclavicle -3.97569e-015 -2.06736e-014 0
rhumerus 16.9641 49.5463 -50.9022
rradius 106.7 -0 0
rwrist -43.1596 0 0
rhand -7.69463 -39.8043 0.0129131
rfingers 7.12502 -0 0
rthumb 18.2026 -68.9722 0.0124756
3062
root -1.46971 15.9861 -34.0991 7.10174 5.22084 1.22855
lfemur -34.3996 4.24342 -3.47815
ltibia 54.3706 -0 0
lfoot -11.9364 -3.83984 -0.0284923
ltoes -44.6585 0 0
rfemur -36.3497 -4.56035 24.2876
rtibia 61.5799 -0 0
rfoot -20.1872 -27.6905 0.0071059
rtoes -2.57588 0 0
lowerback 13.1231 0.204439 -1.04878
upperback -1.13383 0.240521 1.56953
thorax -8.6127 0.2072 2.22216
lowerneck 3.54366 -8.52361 -11.6366
upperneck -2.79122 -11.6849 9.58451
head -0.144344 -5.89972 4.70808
lclavicle -3.97569e-015 -2.06736e-014 0
lhumerus 11.184 -45.4236 88.2862
lradius 71.2046 -0 0
lwrist -0.832722 0 0
lhand -28.306 37.1118 -0.00601052
lfingers 7.12502 -0 0
lthumb -1.68144 67.0846 -0.00581324
rclavicle -3.97569e-015 -2.06736e-014 0
rhumerus 15.1207 50.0118 -52.1766
rradius 107.164 -0 0
rwrist -42.8106 0 0
rhand -7.72501 -40.4126 0.0104356
rfingers 7.12502 -0 0
rthumb 18.1734 -69.5832 0.0100837
3063
root -1.43109 15.9898 -34.0806 7.00939 5.59291 1.18884
lfemur -34.2425 4.05088 -3.68775
ltibia 54.1805 -0 0
lfoot -12.3066 -3.64789 -0.0182772
ltoes -44.8581 0 0
rfemur -36.0978 -4.36785 24.1054
rtibia 61.5514 -0 0
rfoot -19.9369 -27.5891 0.00553884
rtoes -3.21411 0 0
lowerback 13.0625 0.200455 -0.959197
upperback -1.14016 0.248426 1.55406
thorax -8.58426 0.206203 2.15279
lowerneck 3.42244 -8.39185 -11.5246
upperneck -2.67148 -11.4964 9.52047
head -0.120132 -5.80388 4.67025
lclavicle -3.97569e-015 -2.06736e-014 0
lhumerus 10.0225 -45.6321 88.7998
lradius 71.3613 -0 0
lwrist -0.289653 0 0
lhand -28.323 37.3634 -0.0044555
lfingers 7.12502 -0 0
lthumb -1.69791 67.336 -0.00430897
rclavicle -3.97569e-015 -2.06736e-014 0
rhumerus 13.2711 50.4315 -53.4787
rradius 107.603 -0 0
rwrist -42.4672 0 0
rhand -7.75274 -40.9169 0.00788715
rfingers 7.12502 -0 0
rthumb 18.1467 -70.09 0.00762288
3064
root -1.39247 15.9935 -34.062 6.92316 5.94462 1.14883
lfemur -34.0731 3.8665 -3.88456
ltibia 53.9713 -0 0
lfoot -12.6601 -3.45841 -0.00947186
ltoes -45.0387 0 0
rfemur -35.8476 -4.19195 23.9259
rtibia 61.5063 -0 0
rfoot -19.705 -27.4821 0.00395799
rtoes -3.84097 0 0
lowerback 12.9992 0.198922 -0.876646
upperback -1.14922 0.258556 1.54056
thorax -8.55739 0.206733 2.08916
lowerneck 3.30215 -8.26345 -11.4151
upperneck -2.55379 -11.3127 9.45255
head -0.0956952 -5.71044 4.63273
lclavicle -3.97569e-015 -2.06736e-014 0
lhumerus 8.86111 -45.8078 89.3182
lradius 71.5125 -0 0
lwrist 0.196198 0 0
lhand -28.3401 37.5815 -0.00298929
lfingers 7.12502 -0 0
lthumb -1.71441 67.5539 -0.00289077
rclavicle -3.97569e-015 -2.06736e-014 0
rhumerus 11.4249 50.8029 -54.7999
rradius 108.014 -0 0
rwrist -42.1308 0 0
rhand -7.77744 -41.3021 0.00542044
rfingers 7.12502 -0 0
rthumb 18.1229 -70.4774 0.00524039
3065
root -1.35384 15.9973 -34.0435 6.84392 6.27593 1.10919
lfemur -33.889 3.69231 -4.06517
ltibia 53.737 -0 0
lfoot -12.9948 -3.27573 -0.00289589
ltoes -45.2015 0 0
rfemur -35.5999 -4.03585 23.7488
rtibia 61.4425 -0 0
rfoot -19.4951 -27.3689 0.00244154
rtoes -4.45101 0 0
lowerback 12.9331 0.200031 -0.802306
upperback -1.1613 0.271021 1.5294
thorax -8.53237 0.208908 2.03234
lowerneck 3.18338 -8.13917 -11.3087
upperneck -2.43879 -11.1351 9.38039
head -0.0711191 -5.61992 4.59568
lclavicle -3.97569e-015 -2.06736e-014 0
lhumerus 7.70372 -45.9482 89.8389
lradius 71.6587 -0 0
lwrist 0.615614 0 0
lhand -28.3568 37.7631 -0.00169772
lfingers 7.12502 -0 0
lthumb -1.73051 67.7353 -0.00164163
rclavicle -3.97569e-015 -2.06736e-014 0
rhumerus 9.59235 51.1242 -56.1308
rradius 108.394 -0 0
rwrist -41.8029 0 0
rhand -7.79875 -41.5529 0.00318915
rfingers 7.12502 -0 0
rthumb 18.1024 -70.7301 0.00308452
3066
root -1.31522 16.001 -34.0249 6.77257 6.58682 1.07055
lfemur -33.6878 3.53034 -4.22614
ltibia 53.4715 -0 0
lfoot -13.3083 -3.10417 0.00057129
ltoes -45.3478 0 0
rfemur -35.3558 -3.90276 23.574
rtibia 61.3581 -0 0
rfoot -19.3106 -27.2489 0.00108415
rtoes -5.0388 0 0
lowerback 12.8643 0.203971 -0.737364
upperback -1.1767 0.285936 1.52094
thorax -8.50949 0.212843 1.98337
lowerneck 3.06671 -8.01976 -11.2062
upperneck -2.32711 -10.9646 9.30363
head -0.0464871 -5.53286 4.55927
lclavicle -3.97569e-015 -2.06736e-014 0
lhumerus 6.55424 -46.0509 90.3591
lradius 71.8001 -0 0
lwrist 0.95938 0 0
lhand -28.3727 37.9049 -0.000670576
lfingers 7.12502 -0 0
lthumb -1.74583 67.877 -0.00064835
rclavicle -3.97569e-015 -2.06736e-014 0
rhumerus 7.78435 51.394 -57.4615
rradius 108.742 -0 0
rwrist -41.4847 0 0
rhand -7.81628 -41.6543 0.00133932
rfingers 7.12502 -0 0
rthumb 18.0856 -70.8331 0.00129619
3067
root -1.2766 16.0047 -34.0064 1086.71 6.87724 1.03356
lfemur -33.4673 3.38261 -4.36404
ltibia 53.1688 0 0
lfoot -13.5986 -2.94804 0
ltoes -45.4786 0 0
rfemur -35.1161 -3.79589 23.4013
rtibia 61.251 0 0
rfoot -19.1551 -27.1216 0
rtoes -5.59888 0 0
lowerback 12.7927 0.210926 -0.683006
upperback -1.19568 0.303413 1.51555
thorax -8.48902 0.218655 1.94332
lowerneck 2.9527 -7.90599 -11.1084
upperneck -2.21936 -10.8022 9.22192
head -0.0218814 -5.44978 4.52366
lclavicle -3.97569e-015 -2.06736e-014 0
lhumerus 5.41681 -46.1136 90.8759
lradius 71.9371 0 0
lwrist 1.21828 0 0
lhand -28.3873 398.004 0
lfingers 7.12502 0 0
lthumb -1.75997 -652.024 0
rclavicle -3.97569e-015 -2.06736e-014 0
rhumerus 6.01232 51.6115 -58.7815
rradius 109.053 0 0
rwrist -41.1777 0 0
rhand -7.82966 -401.591 0
rfingers 7.12502 0 0
rthumb 18.0727 289.229 0
